<svg width="110" height="94" viewBox="0 0 110 94" fill="none" xmlns="http://www.w3.org/2000/svg">
<path fill-rule="evenodd" clip-rule="evenodd" d="M73.2046 23.5304C68.5662 23.5268 64.0997 25.2861 60.7096 28.452C57.3196 31.6178 55.2593 35.9537 54.9461 40.5816C54.9278 40.7573 54.9096 40.9324 54.9035 41.1166V66.5699C54.9035 71.4926 53.5773 76.3244 51.0643 80.5573C48.5513 84.7903 44.9443 88.268 40.6224 90.6249C36.5752 92.8066 32.0495 93.9487 27.4517 93.9487C22.854 93.9487 18.3282 92.8066 14.281 90.6249C9.95921 88.268 6.35219 84.7903 3.83918 80.5573C1.32616 76.3244 -5.17593e-05 71.4926 1.51495e-09 66.5699V39.1584C0.0027341 38.1211 0.211123 37.0947 0.613092 36.1384C1.01506 35.1822 1.60265 34.3152 2.34186 33.5875C3.08106 32.8598 3.95721 32.2859 4.91963 31.899C5.88205 31.5121 6.91163 31.3199 7.94882 31.3334C8.96292 31.3302 9.96728 31.531 10.9021 31.924C11.837 32.317 12.6832 32.8942 13.3903 33.6211C14.1203 34.3465 14.6994 35.2093 15.0941 36.1597C15.4889 37.1101 15.6915 38.1293 15.6902 39.1584V66.5699C15.6883 68.2229 16.0363 69.8575 16.7113 71.3664C17.3863 72.8753 18.373 74.2242 19.6066 75.3245C21.7718 77.2385 24.5619 78.2949 27.4517 78.2949C30.3415 78.2949 33.1317 77.2385 35.2968 75.3245C36.5312 74.2245 37.5188 72.8758 38.1949 71.3669C38.8709 69.8581 39.2201 68.2233 39.2194 66.5699V41.1178C39.2161 39.4925 39.3983 37.8722 39.7623 36.2882C42.0744 25.8474 51.4628 19.6109 61.0039 19.6109C65.4083 19.5929 69.706 20.9661 73.2839 23.5347L73.2046 23.5304ZM27.3907 74.4009C25.3632 74.422 23.409 73.6431 21.9519 72.233C20.4947 70.8229 19.6521 68.8953 19.6066 66.8682V40.9208C19.6554 38.7552 19.8757 36.5968 20.2655 34.466C21.0762 29.7179 22.6218 25.1251 24.8469 20.853C27.8794 14.983 32.4161 10.0234 37.9932 6.48108C44.7646 2.19677 53.0551 0.0146525 62.6388 1.16025e-05C67.0799 -0.00730886 70.7156 3.45039 70.5875 7.66271C70.4594 11.6688 67.0005 14.8801 62.7486 14.8801C51.3408 14.8801 43.6055 18.8838 39.0851 27.1199C36.8292 31.398 35.5362 36.1177 35.2968 40.9482V66.9615C35.2968 71.089 31.7525 74.432 27.3907 74.4009Z" fill="url(#paint0_linear_178_4291)"/>
<path fill-rule="evenodd" clip-rule="evenodd" d="M88.3156 82.1508C77.8779 82.1508 67.4645 75.0231 66.8301 60.7196V41.1416C66.6776 37.2459 63.8165 35.2993 60.9493 35.2986C60.0797 35.2882 59.2186 35.4721 58.4292 35.837C57.6397 36.2018 56.9418 36.7384 56.3862 37.4075C57.4827 33.5888 59.7926 30.2309 62.9668 27.8414C66.1409 25.4518 70.0067 24.1607 73.9797 24.163C74.0712 24.163 74.1506 24.1539 74.2299 24.1484C74.9235 24.6933 75.5816 25.282 76.2003 25.9108C79.0651 28.7639 81.0656 32.3684 81.9712 36.3089C82.3374 37.8926 82.5216 39.513 82.5203 41.1385V60.6445C82.5143 62.2048 83.124 63.7045 84.2171 64.8179C85.3101 65.9314 86.7982 66.5688 88.3583 66.5918H88.401C89.9597 66.5923 91.4548 65.9738 92.5575 64.8723C93.6603 63.7707 94.2805 62.2764 94.2818 60.7177V39.1821C94.2846 38.1449 94.4929 37.1184 94.8949 36.1622C95.2969 35.206 95.8844 34.339 96.6236 33.6113C97.3628 32.8836 98.239 32.3097 99.2014 31.9228C100.164 31.5359 101.193 31.3436 102.231 31.3572C103.245 31.3538 104.249 31.5546 105.184 31.9476C106.119 32.3406 106.965 32.9178 107.672 33.6448C108.401 34.3706 108.979 35.2336 109.373 36.184C109.767 37.1344 109.968 38.1534 109.966 39.1821V60.553C109.35 74.9377 98.8205 82.1508 88.3156 82.1508ZM102.06 2.34348e-08C103.63 0.000241324 105.166 0.466197 106.471 1.33896C107.777 2.21173 108.795 3.45211 109.396 4.90324C109.997 6.35438 110.154 7.95111 109.847 9.49153C109.541 11.0319 108.784 12.4469 107.674 13.5574C106.563 14.6679 105.148 15.4241 103.607 15.7304C102.067 16.0368 100.47 15.8794 99.0192 15.2783C97.5682 14.6772 96.3279 13.6593 95.4553 12.3534C94.5828 11.0474 94.1171 9.51209 94.1171 7.94147C94.1172 6.8985 94.3226 5.86577 94.7218 4.90222C95.121 3.93867 95.7061 3.06319 96.4437 2.32575C97.1812 1.58832 98.0568 1.00336 99.0204 0.604304C99.984 0.205251 101.017 -8.0091e-05 102.06 2.34348e-08ZM102.206 4.91019C102.834 4.91055 103.448 5.09716 103.97 5.44641C104.493 5.79567 104.899 6.2919 105.14 6.87235C105.38 7.45281 105.442 8.09142 105.32 8.70748C105.197 9.32353 104.894 9.88935 104.45 10.3334C104.006 10.7775 103.44 11.0798 102.823 11.2022C102.207 11.3246 101.569 11.2616 100.988 11.0212C100.408 10.7807 99.9121 10.3736 99.5631 9.85122C99.2142 9.3289 99.0279 8.71483 99.0279 8.08666C99.0279 7.66937 99.1101 7.25617 99.2699 6.87066C99.4296 6.48515 99.6638 6.1349 99.9589 5.83992C100.254 5.54493 100.604 5.31099 100.99 5.15146C101.376 4.99194 101.789 4.90995 102.206 4.91019ZM89.3649 13.2396C90.4102 13.2403 91.4319 13.5508 92.3008 14.132C93.1696 14.7132 93.8467 15.539 94.2463 16.5049C94.6459 17.4708 94.7502 18.5336 94.5459 19.5587C94.3416 20.5839 93.8379 21.5255 93.0985 22.2645C92.3591 23.0034 91.4172 23.5066 90.3919 23.7103C89.3666 23.914 88.304 23.8091 87.3383 23.409C86.3726 23.0088 85.5472 22.3313 84.9665 21.4621C84.3858 20.5929 84.0759 19.571 84.0759 18.5256C84.0758 17.8312 84.2126 17.1435 84.4784 16.502C84.7442 15.8604 85.1338 15.2775 85.625 14.7866C86.1161 14.2957 86.6993 13.9064 87.341 13.641C87.9827 13.3756 88.6704 13.2392 89.3649 13.2396ZM89.4564 16.5076C89.8747 16.5069 90.2839 16.6303 90.6321 16.8622C90.9803 17.0941 91.2518 17.424 91.4124 17.8103C91.573 18.1966 91.6154 18.6219 91.5343 19.0323C91.4531 19.4427 91.252 19.8198 90.9565 20.1158C90.6609 20.4119 90.2842 20.6136 89.8739 20.6955C89.4637 20.7774 89.0383 20.7357 88.6518 20.5758C88.2652 20.4159 87.9347 20.1449 87.7022 19.7971C87.4697 19.4493 87.3457 19.0404 87.3457 18.622C87.3457 18.0619 87.568 17.5246 87.9637 17.1282C88.3594 16.7318 88.8963 16.5086 89.4564 16.5076Z" fill="#0074DA"/>
<defs>
<linearGradient id="paint0_linear_178_4291" x1="-5.45962e-07" y1="83.6131" x2="73.2778" y2="10.3353" gradientUnits="userSpaceOnUse">
<stop stop-color="#00AC9B"/>
<stop offset="1" stop-color="#77C47C"/>
</linearGradient>
</defs>
</svg>
